<svg width="640" height="320" viewBox="0 0 640 320" xmlns="http://www.w3.org/2000/svg">
  <defs>
    <linearGradient id="bg3" x1="0" y1="0" x2="1" y2="1">
      <stop offset="0%" stop-color="#ecfeff"/>
      <stop offset="100%" stop-color="#e0e7ff"/>
    </linearGradient>
  </defs>
  <rect width="640" height="320" fill="url(#bg3)"/>
  <rect x="44" y="40" width="252" height="240" rx="16" fill="#ffffff" stroke="#a5b4fc" stroke-width="3"/>
  <rect x="344" y="40" width="252" height="240" rx="16" fill="#ffffff" stroke="#a5b4fc" stroke-width="3"/>
  <circle cx="110" cy="92" r="24" fill="#facc15"/>
  <circle cx="410" cy="92" r="24" fill="#fb923c"/>
  <rect x="118" y="168" width="92" height="78" rx="10" fill="#f1f5f9" stroke="#334155" stroke-width="3"/>
  <polygon points="108,170 220,170 164,132" fill="#ef4444"/>
  <rect x="138" y="194" width="16" height="16" fill="#93c5fd" stroke="#334155"/>
  <rect x="174" y="194" width="16" height="16" fill="#93c5fd" stroke="#334155"/>
  <rect x="418" y="168" width="92" height="78" rx="10" fill="#f1f5f9" stroke="#334155" stroke-width="3"/>
  <polygon points="408,170 520,170 464,132" fill="#ef4444"/>
  <rect x="438" y="194" width="16" height="16" fill="#93c5fd" stroke="#334155"/>
  <circle cx="250" cy="222" r="7" fill="#ef4444"/>
  <circle cx="550" cy="200" r="7" fill="#ef4444"/>
  <circle cx="540" cy="222" r="7" fill="#ef4444"/>
  <path d="M318 66 L326 74 L318 82" fill="none" stroke="#ef4444" stroke-width="5" stroke-linecap="round" stroke-linejoin="round"/>
  <path d="M318 122 L326 130 L318 138" fill="none" stroke="#ef4444" stroke-width="5" stroke-linecap="round" stroke-linejoin="round"/>
  <path d="M318 178 L326 186 L318 194" fill="none" stroke="#ef4444" stroke-width="5" stroke-linecap="round" stroke-linejoin="round"/>
</svg>
