<svg width="640" height="320" viewBox="0 0 640 320" xmlns="http://www.w3.org/2000/svg">
  <defs>
    <linearGradient id="bg2" x1="0" y1="0" x2="1" y2="1">
      <stop offset="0%" stop-color="#fef3c7"/>
      <stop offset="100%" stop-color="#fee2e2"/>
    </linearGradient>
  </defs>
  <rect width="640" height="320" fill="url(#bg2)"/>
  <ellipse cx="160" cy="226" rx="92" ry="34" fill="#334155"/>
  <ellipse cx="320" cy="226" rx="92" ry="34" fill="#334155"/>
  <ellipse cx="480" cy="226" rx="92" ry="34" fill="#334155"/>
  <ellipse cx="160" cy="226" rx="72" ry="22" fill="#0f172a"/>
  <ellipse cx="320" cy="226" rx="72" ry="22" fill="#0f172a"/>
  <ellipse cx="480" cy="226" rx="72" ry="22" fill="#0f172a"/>
  <circle cx="320" cy="180" r="44" fill="#a16207"/>
  <circle cx="304" cy="170" r="6" fill="#111827"/>
  <circle cx="336" cy="170" r="6" fill="#111827"/>
  <path d="M300 194 Q320 210 340 194" stroke="#111827" stroke-width="5" fill="none" stroke-linecap="round"/>
  <rect x="408" y="44" width="118" height="62" rx="12" fill="#ef4444"/>
  <rect x="492" y="96" width="22" height="100" rx="10" fill="#475569"/>
  <circle cx="452" cy="74" r="14" fill="#fde68a"/>
  <circle cx="486" cy="74" r="14" fill="#fde68a"/>
  <text x="58" y="70" font-size="46" fill="#7c2d12" font-family="Arial" font-weight="700">20s</text>
</svg>
